<svg xmlns="http://www.w3.org/2000/svg" viewBox="0 0 1600 900"><filter id="b"><feGaussianBlur stdDeviation="12" /></filter><path fill="#140d18" d="M0 0h1600v900H0z"/><g filter="url(#b)" transform="matrix(6.25 0 0 6.25 3.1 3.1)" fill-opacity=".5"><ellipse fill="#887a50" rx="1" ry="1" transform="rotate(3.5 -1111.9 3001.9) scale(31.81231 22.30366)"/><ellipse fill="#773fb9" cx="75" cy="67" rx="24" ry="23"/><ellipse fill="#3f245e" rx="1" ry="1" transform="rotate(15.2 -67.7 111.2) scale(39.33579 70.43593)"/><path fill="#a6b1c0" d="M189.8 71.3l-39 1.4-.6-16 39-1.4z"/><ellipse rx="1" ry="1" transform="matrix(76.99103 1.21187 -.43595 27.69653 179.8 99)"/><ellipse cx="231" cy="20" rx="48" ry="48"/><path fill="#ffc500" d="M166 86h38v4h-38z"/><ellipse fill="#140b1f" rx="1" ry="1" transform="matrix(-4.5794 -31.80524 28.92894 -4.16526 83.6 28.2)"/></g></svg>